<?xml version="1.0" encoding="UTF-8"?>
<mxfile host="app.diagrams.net" modified="2025-08-16T12:00:00.000Z" agent="draw.io" etag="abc123" version="21.6.5" type="device">
  <diagram name="SOPs UI Layout" id="sops-ui-layout">
    <mxGraphModel dx="1422" dy="794" grid="1" gridSize="10" guides="1" tooltips="1" connect="1" arrows="1" fold="1" page="1" pageScale="1" pageWidth="1169" pageHeight="827" math="0" shadow="0">
      <root>
        <mxCell id="0" />
        <mxCell id="1" parent="0" />
        
        <!-- Main Container -->
        <mxCell id="main-container" value="" style="rounded=0;whiteSpace=wrap;html=1;fillColor=#f8f9fa;strokeColor=#dee2e6;strokeWidth=2;" vertex="1" parent="1">
          <mxGeometry x="40" y="40" width="1080" height="740" as="geometry" />
        </mxCell>
        
        <!-- Header -->
        <mxCell id="header" value="" style="rounded=0;whiteSpace=wrap;html=1;fillColor=#3498db;strokeColor=#2980b9;strokeWidth=2;" vertex="1" parent="1">
          <mxGeometry x="40" y="40" width="1080" height="80" as="geometry" />
        </mxCell>
        
        <!-- Header Title -->
        <mxCell id="header-title" value="&lt;font style=&quot;font-size: 24px;&quot; color=&quot;#ffffff&quot;&gt;&lt;b&gt;SOPs Knowledge Base&lt;/b&gt;&lt;/font&gt;" style="text;html=1;strokeColor=none;fillColor=none;align=left;verticalAlign=middle;whiteSpace=wrap;rounded=0;" vertex="1" parent="1">
          <mxGeometry x="60" y="55" width="300" height="50" as="geometry" />
        </mxCell>
        
        <!-- Header Navigation -->
        <mxCell id="header-nav" value="&lt;font color=&quot;#ffffff&quot;&gt;Home | Operations | Emergency | Templates&lt;/font&gt;" style="text;html=1;strokeColor=none;fillColor=none;align=right;verticalAlign=middle;whiteSpace=wrap;rounded=0;" vertex="1" parent="1">
          <mxGeometry x="800" y="55" width="300" height="50" as="geometry" />
        </mxCell>
        
        <!-- Sidebar -->
        <mxCell id="sidebar" value="" style="rounded=0;whiteSpace=wrap;html=1;fillColor=#ecf0f1;strokeColor=#bdc3c7;strokeWidth=1;" vertex="1" parent="1">
          <mxGeometry x="40" y="120" width="300" height="660" as="geometry" />
        </mxCell>
        
        <!-- Sidebar Title -->
        <mxCell id="sidebar-title" value="&lt;font style=&quot;font-size: 18px;&quot;&gt;&lt;b&gt;Categories&lt;/b&gt;&lt;/font&gt;" style="text;html=1;strokeColor=none;fillColor=none;align=left;verticalAlign=middle;whiteSpace=wrap;rounded=0;" vertex="1" parent="1">
          <mxGeometry x="60" y="140" width="200" height="30" as="geometry" />
        </mxCell>
        
        <!-- Operations Section -->
        <mxCell id="ops-section" value="" style="rounded=0;whiteSpace=wrap;html=1;fillColor=#ffffff;strokeColor=#bdc3c7;strokeWidth=1;" vertex="1" parent="1">
          <mxGeometry x="60" y="180" width="260" height="120" as="geometry" />
        </mxCell>
        
        <mxCell id="ops-title" value="&lt;font style=&quot;font-size: 16px;&quot; color=&quot;#2c3e50&quot;&gt;&lt;b&gt;📋 Operations&lt;/b&gt;&lt;/font&gt;" style="text;html=1;strokeColor=none;fillColor=none;align=left;verticalAlign=middle;whiteSpace=wrap;rounded=0;" vertex="1" parent="1">
          <mxGeometry x="80" y="190" width="200" height="30" as="geometry" />
        </mxCell>
        
        <mxCell id="ops-link1" value="&lt;font color=&quot;#3498db&quot;&gt;• Daily System Health Check&lt;/font&gt;" style="text;html=1;strokeColor=none;fillColor=none;align=left;verticalAlign=middle;whiteSpace=wrap;rounded=0;" vertex="1" parent="1">
          <mxGeometry x="90" y="220" width="200" height="20" as="geometry" />
        </mxCell>
        
        <mxCell id="ops-link2" value="&lt;font color=&quot;#3498db&quot;&gt;• Server Maintenance&lt;/font&gt;" style="text;html=1;strokeColor=none;fillColor=none;align=left;verticalAlign=middle;whiteSpace=wrap;rounded=0;" vertex="1" parent="1">
          <mxGeometry x="90" y="245" width="200" height="20" as="geometry" />
        </mxCell>
        
        <mxCell id="ops-link3" value="&lt;font color=&quot;#3498db&quot;&gt;• Backup Procedures&lt;/font&gt;" style="text;html=1;strokeColor=none;fillColor=none;align=left;verticalAlign=middle;whiteSpace=wrap;rounded=0;" vertex="1" parent="1">
          <mxGeometry x="90" y="270" width="200" height="20" as="geometry" />
        </mxCell>
        
        <!-- Emergency Section -->
        <mxCell id="emergency-section" value="" style="rounded=0;whiteSpace=wrap;html=1;fillColor=#ffffff;strokeColor=#bdc3c7;strokeWidth=1;" vertex="1" parent="1">
          <mxGeometry x="60" y="320" width="260" height="100" as="geometry" />
        </mxCell>
        
        <mxCell id="emergency-title" value="&lt;font style=&quot;font-size: 16px;&quot; color=&quot;#e74c3c&quot;&gt;&lt;b&gt;🚨 Emergency&lt;/b&gt;&lt;/font&gt;" style="text;html=1;strokeColor=none;fillColor=none;align=left;verticalAlign=middle;whiteSpace=wrap;rounded=0;" vertex="1" parent="1">
          <mxGeometry x="80" y="330" width="200" height="30" as="geometry" />
        </mxCell>
        
        <mxCell id="emergency-link1" value="&lt;font color=&quot;#3498db&quot;&gt;• Incident Response Protocol&lt;/font&gt;" style="text;html=1;strokeColor=none;fillColor=none;align=left;verticalAlign=middle;whiteSpace=wrap;rounded=0;" vertex="1" parent="1">
          <mxGeometry x="90" y="360" width="200" height="20" as="geometry" />
        </mxCell>
        
        <mxCell id="emergency-link2" value="&lt;font color=&quot;#3498db&quot;&gt;• System Recovery&lt;/font&gt;" style="text;html=1;strokeColor=none;fillColor=none;align=left;verticalAlign=middle;whiteSpace=wrap;rounded=0;" vertex="1" parent="1">
          <mxGeometry x="90" y="385" width="200" height="20" as="geometry" />
        </mxCell>
        
        <!-- Templates Section -->
        <mxCell id="templates-section" value="" style="rounded=0;whiteSpace=wrap;html=1;fillColor=#ffffff;strokeColor=#bdc3c7;strokeWidth=1;" vertex="1" parent="1">
          <mxGeometry x="60" y="440" width="260" height="80" as="geometry" />
        </mxCell>
        
        <mxCell id="templates-title" value="&lt;font style=&quot;font-size: 16px;&quot; color=&quot;#9b59b6&quot;&gt;&lt;b&gt;📝 Templates&lt;/b&gt;&lt;/font&gt;" style="text;html=1;strokeColor=none;fillColor=none;align=left;verticalAlign=middle;whiteSpace=wrap;rounded=0;" vertex="1" parent="1">
          <mxGeometry x="80" y="450" width="200" height="30" as="geometry" />
        </mxCell>
        
        <mxCell id="templates-link1" value="&lt;font color=&quot;#3498db&quot;&gt;• SOP Template&lt;/font&gt;" style="text;html=1;strokeColor=none;fillColor=none;align=left;verticalAlign=middle;whiteSpace=wrap;rounded=0;" vertex="1" parent="1">
          <mxGeometry x="90" y="480" width="200" height="20" as="geometry" />
        </mxCell>
        
        <!-- Quick Actions -->
        <mxCell id="quick-actions" value="" style="rounded=0;whiteSpace=wrap;html=1;fillColor=#ffffff;strokeColor=#bdc3c7;strokeWidth=1;" vertex="1" parent="1">
          <mxGeometry x="60" y="540" width="260" height="100" as="geometry" />
        </mxCell>
        
        <mxCell id="quick-title" value="&lt;font style=&quot;font-size: 16px;&quot; color=&quot;#27ae60&quot;&gt;&lt;b&gt;⚡ Quick Actions&lt;/b&gt;&lt;/font&gt;" style="text;html=1;strokeColor=none;fillColor=none;align=left;verticalAlign=middle;whiteSpace=wrap;rounded=0;" vertex="1" parent="1">
          <mxGeometry x="80" y="550" width="200" height="30" as="geometry" />
        </mxCell>
        
        <mxCell id="quick-link1" value="&lt;font color=&quot;#3498db&quot;&gt;• Creating New SOPs&lt;/font&gt;" style="text;html=1;strokeColor=none;fillColor=none;align=left;verticalAlign=middle;whiteSpace=wrap;rounded=0;" vertex="1" parent="1">
          <mxGeometry x="90" y="580" width="200" height="20" as="geometry" />
        </mxCell>
        
        <mxCell id="quick-link2" value="&lt;font color=&quot;#3498db&quot;&gt;• Search All SOPs&lt;/font&gt;" style="text;html=1;strokeColor=none;fillColor=none;align=left;verticalAlign=middle;whiteSpace=wrap;rounded=0;" vertex="1" parent="1">
          <mxGeometry x="90" y="605" width="200" height="20" as="geometry" />
        </mxCell>
        
        <!-- Main Content Area -->
        <mxCell id="content-area" value="" style="rounded=0;whiteSpace=wrap;html=1;fillColor=#ffffff;strokeColor=#bdc3c7;strokeWidth=1;" vertex="1" parent="1">
          <mxGeometry x="360" y="120" width="760" height="660" as="geometry" />
        </mxCell>
        
        <!-- Breadcrumb -->
        <mxCell id="breadcrumb" value="&lt;font color=&quot;#7f8c8d&quot;&gt;Home &gt; Operations &gt; Daily System Health Check&lt;/font&gt;" style="text;html=1;strokeColor=none;fillColor=none;align=left;verticalAlign=middle;whiteSpace=wrap;rounded=0;" vertex="1" parent="1">
          <mxGeometry x="380" y="140" width="400" height="30" as="geometry" />
        </mxCell>
        
        <!-- Content Title -->
        <mxCell id="content-title" value="&lt;font style=&quot;font-size: 28px;&quot; color=&quot;#2c3e50&quot;&gt;&lt;b&gt;SOP: Daily System Health Check&lt;/b&gt;&lt;/font&gt;" style="text;html=1;strokeColor=none;fillColor=none;align=left;verticalAlign=middle;whiteSpace=wrap;rounded=0;" vertex="1" parent="1">
          <mxGeometry x="380" y="180" width="600" height="50" as="geometry" />
        </mxCell>
        
        <!-- Metadata Box -->
        <mxCell id="metadata-box" value="" style="rounded=0;whiteSpace=wrap;html=1;fillColor=#f8f9fa;strokeColor=#dee2e6;strokeWidth=1;" vertex="1" parent="1">
          <mxGeometry x="380" y="240" width="720" height="80" as="geometry" />
        </mxCell>
        
        <mxCell id="metadata-content" value="&lt;b&gt;Purpose:&lt;/b&gt; Ensure all critical systems are operating normally&lt;br/&gt;&lt;b&gt;Scope:&lt;/b&gt; All production systems and services&lt;br/&gt;&lt;b&gt;Owner:&lt;/b&gt; Operations Team&lt;br/&gt;&lt;b&gt;Last Updated:&lt;/b&gt; August 16, 2025" style="text;html=1;strokeColor=none;fillColor=none;align=left;verticalAlign=top;whiteSpace=wrap;rounded=0;" vertex="1" parent="1">
          <mxGeometry x="400" y="250" width="680" height="60" as="geometry" />
        </mxCell>
        
        <!-- Content Sections -->
        <mxCell id="content-section1" value="" style="rounded=0;whiteSpace=wrap;html=1;fillColor=#ffffff;strokeColor=#dee2e6;strokeWidth=1;" vertex="1" parent="1">
          <mxGeometry x="380" y="340" width="720" height="120" as="geometry" />
        </mxCell>
        
        <mxCell id="section1-title" value="&lt;font style=&quot;font-size: 20px;&quot; color=&quot;#2c3e50&quot;&gt;&lt;b&gt;Prerequisites&lt;/b&gt;&lt;/font&gt;" style="text;html=1;strokeColor=none;fillColor=none;align=left;verticalAlign=middle;whiteSpace=wrap;rounded=0;" vertex="1" parent="1">
          <mxGeometry x="400" y="350" width="200" height="30" as="geometry" />
        </mxCell>
        
        <mxCell id="section1-content" value="☐ Access to monitoring dashboards&lt;br/&gt;☐ VPN connection established&lt;br/&gt;☐ Checklist template ready&lt;br/&gt;☐ Incident response contact list available" style="text;html=1;strokeColor=none;fillColor=none;align=left;verticalAlign=top;whiteSpace=wrap;rounded=0;" vertex="1" parent="1">
          <mxGeometry x="400" y="380" width="680" height="70" as="geometry" />
        </mxCell>
        
        <mxCell id="content-section2" value="" style="rounded=0;whiteSpace=wrap;html=1;fillColor=#ffffff;strokeColor=#dee2e6;strokeWidth=1;" vertex="1" parent="1">
          <mxGeometry x="380" y="480" width="720" height="200" as="geometry" />
        </mxCell>
        
        <mxCell id="section2-title" value="&lt;font style=&quot;font-size: 20px;&quot; color=&quot;#2c3e50&quot;&gt;&lt;b&gt;Steps&lt;/b&gt;&lt;/font&gt;" style="text;html=1;strokeColor=none;fillColor=none;align=left;verticalAlign=middle;whiteSpace=wrap;rounded=0;" vertex="1" parent="1">
          <mxGeometry x="400" y="490" width="200" height="30" as="geometry" />
        </mxCell>
        
        <mxCell id="phase1-title" value="&lt;font style=&quot;font-size: 16px;&quot; color=&quot;#34495e&quot;&gt;&lt;b&gt;Phase 1: System Monitoring&lt;/b&gt;&lt;/font&gt;" style="text;html=1;strokeColor=none;fillColor=none;align=left;verticalAlign=middle;whiteSpace=wrap;rounded=0;" vertex="1" parent="1">
          <mxGeometry x="400" y="520" width="300" height="25" as="geometry" />
        </mxCell>
        
        <mxCell id="section2-content" value="1. Open primary monitoring dashboard&lt;br/&gt;2. Check CPU usage across all servers (should be &lt; 80%)&lt;br/&gt;3. Verify memory utilization (should be &lt; 85%)&lt;br/&gt;4. Review disk space usage (should be &lt; 90%)&lt;br/&gt;5. Check network connectivity and latency" style="text;html=1;strokeColor=none;fillColor=none;align=left;verticalAlign=top;whiteSpace=wrap;rounded=0;" vertex="1" parent="1">
          <mxGeometry x="400" y="545" width="680" height="120" as="geometry" />
        </mxCell>
        
        <!-- Action Buttons -->
        <mxCell id="action-buttons" value="" style="rounded=0;whiteSpace=wrap;html=1;fillColor=#f8f9fa;strokeColor=#dee2e6;strokeWidth=1;" vertex="1" parent="1">
          <mxGeometry x="380" y="700" width="720" height="60" as="geometry" />
        </mxCell>
        
        <mxCell id="edit-button" value="✏️ Edit SOP" style="rounded=1;whiteSpace=wrap;html=1;fillColor=#3498db;strokeColor=#2980b9;fontColor=#ffffff;fontStyle=1;" vertex="1" parent="1">
          <mxGeometry x="400" y="715" width="100" height="30" as="geometry" />
        </mxCell>
        
        <mxCell id="print-button" value="🖨️ Print" style="rounded=1;whiteSpace=wrap;html=1;fillColor=#95a5a6;strokeColor=#7f8c8d;fontColor=#ffffff;fontStyle=1;" vertex="1" parent="1">
          <mxGeometry x="520" y="715" width="80" height="30" as="geometry" />
        </mxCell>
        
        <mxCell id="share-button" value="🔗 Share" style="rounded=1;whiteSpace=wrap;html=1;fillColor=#27ae60;strokeColor=#229954;fontColor=#ffffff;fontStyle=1;" vertex="1" parent="1">
          <mxGeometry x="620" y="715" width="80" height="30" as="geometry" />
        </mxCell>
        
        <mxCell id="history-button" value="📋 History" style="rounded=1;whiteSpace=wrap;html=1;fillColor=#f39c12;strokeColor=#e67e22;fontColor=#ffffff;fontStyle=1;" vertex="1" parent="1">
          <mxGeometry x="720" y="715" width="80" height="30" as="geometry" />
        </mxCell>
        
        <!-- Search Bar -->
        <mxCell id="search-container" value="" style="rounded=1;whiteSpace=wrap;html=1;fillColor=#ffffff;strokeColor=#bdc3c7;strokeWidth=1;" vertex="1" parent="1">
          <mxGeometry x="60" y="660" width="260" height="40" as="geometry" />
        </mxCell>
        
        <mxCell id="search-icon" value="🔍" style="text;html=1;strokeColor=none;fillColor=none;align=center;verticalAlign=middle;whiteSpace=wrap;rounded=0;" vertex="1" parent="1">
          <mxGeometry x="70" y="665" width="30" height="30" as="geometry" />
        </mxCell>
        
        <mxCell id="search-text" value="&lt;font color=&quot;#95a5a6&quot;&gt;Search SOPs...&lt;/font&gt;" style="text;html=1;strokeColor=none;fillColor=none;align=left;verticalAlign=middle;whiteSpace=wrap;rounded=0;" vertex="1" parent="1">
          <mxGeometry x="100" y="665" width="200" height="30" as="geometry" />
        </mxCell>
        
        <!-- Mobile View Indicator -->
        <mxCell id="mobile-note" value="📱 Responsive design adapts to mobile devices" style="text;html=1;strokeColor=none;fillColor=none;align=center;verticalAlign=middle;whiteSpace=wrap;rounded=0;fontColor=#7f8c8d;fontStyle=2;" vertex="1" parent="1">
          <mxGeometry x="60" y="720" width="260" height="40" as="geometry" />
        </mxCell>
        
        <!-- Status Indicator -->
        <mxCell id="status-indicator" value="🟢 Server: localhost:8000" style="text;html=1;strokeColor=none;fillColor=none;align=right;verticalAlign=middle;whiteSpace=wrap;rounded=0;fontColor=#27ae60;" vertex="1" parent="1">
          <mxGeometry x="920" y="715" width="180" height="30" as="geometry" />
        </mxCell>
        
      </root>
    </mxGraphModel>
  </diagram>
</mxfile>
